<mxfile host="app.diagrams.net" agent="Mozilla/5.0 (Windows NT 10.0; Win64; x64) AppleWebKit/537.36 (KHTML, like Gecko) Chrome/134.0.0.0 Safari/537.36" version="26.1.3">
  <diagram name="CRM &amp; ERP" id="hLIjLHAYCb3o381HsihC">
    <mxGraphModel grid="1" page="1" gridSize="10" guides="1" tooltips="1" connect="1" arrows="1" fold="1" pageScale="1" pageWidth="1920" pageHeight="1200" math="0" shadow="0">
      <root>
        <mxCell id="3UP7FawPSVQ9M-GqKKiO-0" />
        <mxCell id="3UP7FawPSVQ9M-GqKKiO-1" parent="3UP7FawPSVQ9M-GqKKiO-0" />
        <mxCell id="gd-LYYQTuDr1hK2L6fpe-44" value="" style="rounded=1;whiteSpace=wrap;html=1;arcSize=6;fillColor=none;dashed=1;" vertex="1" parent="3UP7FawPSVQ9M-GqKKiO-1">
          <mxGeometry x="340" y="-910" width="490" height="660" as="geometry" />
        </mxCell>
        <mxCell id="gd-LYYQTuDr1hK2L6fpe-46" value="" style="rounded=1;whiteSpace=wrap;html=1;arcSize=6;fillColor=none;dashed=1;" vertex="1" parent="3UP7FawPSVQ9M-GqKKiO-1">
          <mxGeometry x="1000" y="-910" width="1570" height="650" as="geometry" />
        </mxCell>
        <mxCell id="3UP7FawPSVQ9M-GqKKiO-40" value="&lt;font style=&quot;&quot;&gt;&lt;b&gt;Data Integration&amp;nbsp;&lt;/b&gt;&lt;font style=&quot;font-size: 20px;&quot;&gt;(how to tables are related)&lt;/font&gt;&lt;br style=&quot;font-size: 38px;&quot;&gt;&lt;/font&gt;" style="text;html=1;strokeColor=none;fillColor=none;align=left;verticalAlign=middle;whiteSpace=wrap;rounded=1;fontSize=38;fontFamily=Helvetica;" vertex="1" parent="3UP7FawPSVQ9M-GqKKiO-1">
          <mxGeometry x="30" y="-1160" width="770" height="54" as="geometry" />
        </mxCell>
        <mxCell id="gd-LYYQTuDr1hK2L6fpe-45" value="&lt;font style=&quot;font-size: 35px;&quot;&gt;&lt;b&gt;CRM&lt;/b&gt;&lt;/font&gt;" style="rounded=1;whiteSpace=wrap;html=1;fillColor=#dae8fc;strokeColor=#6c8ebf;" vertex="1" parent="3UP7FawPSVQ9M-GqKKiO-1">
          <mxGeometry x="470" y="-940" width="230" height="50" as="geometry" />
        </mxCell>
        <mxCell id="gd-LYYQTuDr1hK2L6fpe-47" value="&lt;font style=&quot;font-size: 35px;&quot;&gt;&lt;b&gt;ERP&lt;/b&gt;&lt;/font&gt;" style="rounded=1;whiteSpace=wrap;html=1;fillColor=#fff2cc;strokeColor=#d6b656;" vertex="1" parent="3UP7FawPSVQ9M-GqKKiO-1">
          <mxGeometry x="1670" y="-940" width="230" height="50" as="geometry" />
        </mxCell>
        <mxCell id="ewpIsNDN0GunfStNLF3E-1" value="&lt;font style=&quot;font-size: 18px;&quot;&gt;Customer Relationship Management&lt;/font&gt;" style="text;html=1;strokeColor=none;fillColor=none;align=center;verticalAlign=middle;whiteSpace=wrap;rounded=0;fontSize=18;" vertex="1" parent="3UP7FawPSVQ9M-GqKKiO-1">
          <mxGeometry x="410" y="-980" width="360" height="30" as="geometry" />
        </mxCell>
        <mxCell id="ewpIsNDN0GunfStNLF3E-2" value="&lt;font style=&quot;font-size: 18px;&quot;&gt;Enterprise Resource Planning&lt;/font&gt;" style="text;html=1;strokeColor=none;fillColor=none;align=center;verticalAlign=middle;whiteSpace=wrap;rounded=0;fontSize=18;" vertex="1" parent="3UP7FawPSVQ9M-GqKKiO-1">
          <mxGeometry x="1605" y="-970" width="360" height="30" as="geometry" />
        </mxCell>
        <mxCell id="auUgzY_PMX-vAND9uBgH-4" value="erp_business_partners" style="swimlane;fontStyle=0;childLayout=stackLayout;horizontal=1;startSize=40;horizontalStack=0;resizeParent=1;resizeParentMax=0;resizeLast=0;collapsible=1;marginBottom=0;whiteSpace=wrap;html=1;rounded=1;fillColor=#fff2cc;strokeColor=#d6b656;fontSize=24;" vertex="1" parent="3UP7FawPSVQ9M-GqKKiO-1">
          <mxGeometry x="1080" y="-810" width="270" height="120" as="geometry" />
        </mxCell>
        <mxCell id="auUgzY_PMX-vAND9uBgH-5" value="partner_id" style="text;strokeColor=none;fillColor=none;align=left;verticalAlign=middle;spacingLeft=4;spacingRight=4;overflow=hidden;points=[[0,0.5],[1,0.5]];portConstraint=eastwest;rotatable=0;whiteSpace=wrap;html=1;fontSize=23;" vertex="1" parent="auUgzY_PMX-vAND9uBgH-4">
          <mxGeometry y="40" width="270" height="40" as="geometry" />
        </mxCell>
        <mxCell id="7fCkenw9OyGMZ3_PtRmy-8" value="&lt;font style=&quot;font-size: 24px;&quot;&gt;&lt;b&gt;BUSINESS PARTNER&lt;/b&gt;&lt;/font&gt;" style="rounded=0;whiteSpace=wrap;html=1;fillColor=#dae8fc;strokeColor=#6c8ebf;" vertex="1" parent="auUgzY_PMX-vAND9uBgH-4">
          <mxGeometry y="80" width="270" height="40" as="geometry" />
        </mxCell>
        <mxCell id="auUgzY_PMX-vAND9uBgH-8" value="erp_products" style="swimlane;fontStyle=0;childLayout=stackLayout;horizontal=1;startSize=40;horizontalStack=0;resizeParent=1;resizeParentMax=0;resizeLast=0;collapsible=1;marginBottom=0;whiteSpace=wrap;html=1;rounded=1;fillColor=#fff2cc;strokeColor=#d6b656;fontSize=24;" vertex="1" parent="3UP7FawPSVQ9M-GqKKiO-1">
          <mxGeometry x="1500" y="-630" width="270" height="280" as="geometry" />
        </mxCell>
        <mxCell id="auUgzY_PMX-vAND9uBgH-12" value="supplier_partner_id" style="text;strokeColor=none;fillColor=none;align=left;verticalAlign=middle;spacingLeft=4;spacingRight=4;overflow=hidden;points=[[0,0.5],[1,0.5]];portConstraint=eastwest;rotatable=0;whiteSpace=wrap;html=1;fontSize=23;" vertex="1" parent="auUgzY_PMX-vAND9uBgH-8">
          <mxGeometry y="40" width="270" height="40" as="geometry" />
        </mxCell>
        <mxCell id="auUgzY_PMX-vAND9uBgH-9" value="prod_category_id" style="text;strokeColor=none;fillColor=none;align=left;verticalAlign=middle;spacingLeft=4;spacingRight=4;overflow=hidden;points=[[0,0.5],[1,0.5]];portConstraint=eastwest;rotatable=0;whiteSpace=wrap;html=1;fontSize=23;" vertex="1" parent="auUgzY_PMX-vAND9uBgH-8">
          <mxGeometry y="80" width="270" height="40" as="geometry" />
        </mxCell>
        <mxCell id="auUgzY_PMX-vAND9uBgH-10" value="product_id" style="text;strokeColor=none;fillColor=none;align=left;verticalAlign=middle;spacingLeft=4;spacingRight=4;overflow=hidden;points=[[0,0.5],[1,0.5]];portConstraint=eastwest;rotatable=0;whiteSpace=wrap;html=1;fontSize=23;" vertex="1" parent="auUgzY_PMX-vAND9uBgH-8">
          <mxGeometry y="120" width="270" height="40" as="geometry" />
        </mxCell>
        <mxCell id="sGkrU96Hlo-Jg_bifWnj-12" value="created_by" style="text;strokeColor=none;fillColor=none;align=left;verticalAlign=middle;spacingLeft=4;spacingRight=4;overflow=hidden;points=[[0,0.5],[1,0.5]];portConstraint=eastwest;rotatable=0;whiteSpace=wrap;html=1;fontSize=23;" vertex="1" parent="auUgzY_PMX-vAND9uBgH-8">
          <mxGeometry y="160" width="270" height="40" as="geometry" />
        </mxCell>
        <mxCell id="sGkrU96Hlo-Jg_bifWnj-11" value="changed_by" style="text;strokeColor=none;fillColor=none;align=left;verticalAlign=middle;spacingLeft=4;spacingRight=4;overflow=hidden;points=[[0,0.5],[1,0.5]];portConstraint=eastwest;rotatable=0;whiteSpace=wrap;html=1;fontSize=23;" vertex="1" parent="auUgzY_PMX-vAND9uBgH-8">
          <mxGeometry y="200" width="270" height="40" as="geometry" />
        </mxCell>
        <mxCell id="7fCkenw9OyGMZ3_PtRmy-1" value="&lt;font style=&quot;font-size: 24px;&quot;&gt;&lt;b&gt;PRODUCT&lt;/b&gt;&lt;/font&gt;" style="rounded=0;whiteSpace=wrap;html=1;fillColor=#f8cecc;strokeColor=#b85450;" vertex="1" parent="auUgzY_PMX-vAND9uBgH-8">
          <mxGeometry y="240" width="270" height="40" as="geometry" />
        </mxCell>
        <mxCell id="auUgzY_PMX-vAND9uBgH-14" value="erp_product_categories" style="swimlane;fontStyle=0;childLayout=stackLayout;horizontal=1;startSize=40;horizontalStack=0;resizeParent=1;resizeParentMax=0;resizeLast=0;collapsible=1;marginBottom=0;whiteSpace=wrap;html=1;rounded=1;fillColor=#fff2cc;strokeColor=#d6b656;fontSize=24;" vertex="1" parent="3UP7FawPSVQ9M-GqKKiO-1">
          <mxGeometry x="1920" y="-710" width="270" height="120" as="geometry" />
        </mxCell>
        <mxCell id="auUgzY_PMX-vAND9uBgH-15" value="prod_category_id" style="text;strokeColor=none;fillColor=none;align=left;verticalAlign=middle;spacingLeft=4;spacingRight=4;overflow=hidden;points=[[0,0.5],[1,0.5]];portConstraint=eastwest;rotatable=0;whiteSpace=wrap;html=1;fontSize=23;" vertex="1" parent="auUgzY_PMX-vAND9uBgH-14">
          <mxGeometry y="40" width="270" height="40" as="geometry" />
        </mxCell>
        <mxCell id="7fCkenw9OyGMZ3_PtRmy-3" value="&lt;font style=&quot;font-size: 24px;&quot;&gt;&lt;b&gt;PRODUCT&lt;/b&gt;&lt;/font&gt;" style="rounded=0;whiteSpace=wrap;html=1;fillColor=#f8cecc;strokeColor=#b85450;" vertex="1" parent="auUgzY_PMX-vAND9uBgH-14">
          <mxGeometry y="80" width="270" height="40" as="geometry" />
        </mxCell>
        <mxCell id="auUgzY_PMX-vAND9uBgH-19" value="erp_product_texts" style="swimlane;fontStyle=0;childLayout=stackLayout;horizontal=1;startSize=40;horizontalStack=0;resizeParent=1;resizeParentMax=0;resizeLast=0;collapsible=1;marginBottom=0;whiteSpace=wrap;html=1;rounded=1;fillColor=#fff2cc;strokeColor=#d6b656;fontSize=24;" vertex="1" parent="3UP7FawPSVQ9M-GqKKiO-1">
          <mxGeometry x="1950" y="-540" width="270" height="120" as="geometry" />
        </mxCell>
        <mxCell id="auUgzY_PMX-vAND9uBgH-20" value="prod_category_id" style="text;strokeColor=none;fillColor=none;align=left;verticalAlign=middle;spacingLeft=4;spacingRight=4;overflow=hidden;points=[[0,0.5],[1,0.5]];portConstraint=eastwest;rotatable=0;whiteSpace=wrap;html=1;fontSize=23;" vertex="1" parent="auUgzY_PMX-vAND9uBgH-19">
          <mxGeometry y="40" width="270" height="40" as="geometry" />
        </mxCell>
        <mxCell id="7fCkenw9OyGMZ3_PtRmy-2" value="&lt;font style=&quot;font-size: 24px;&quot;&gt;&lt;b&gt;PRODUCT&lt;/b&gt;&lt;/font&gt;" style="rounded=0;whiteSpace=wrap;html=1;fillColor=#f8cecc;strokeColor=#b85450;" vertex="1" parent="auUgzY_PMX-vAND9uBgH-19">
          <mxGeometry y="80" width="270" height="40" as="geometry" />
        </mxCell>
        <mxCell id="auUgzY_PMX-vAND9uBgH-22" value="crm_sales_orders" style="swimlane;fontStyle=0;childLayout=stackLayout;horizontal=1;startSize=40;horizontalStack=0;resizeParent=1;resizeParentMax=0;resizeLast=0;collapsible=1;marginBottom=0;whiteSpace=wrap;html=1;rounded=1;fillColor=#dae8fc;strokeColor=#6c8ebf;fontSize=24;" vertex="1" parent="3UP7FawPSVQ9M-GqKKiO-1">
          <mxGeometry x="455" y="-770" width="270" height="240" as="geometry" />
        </mxCell>
        <mxCell id="auUgzY_PMX-vAND9uBgH-23" value="partner_id" style="text;strokeColor=none;fillColor=none;align=left;verticalAlign=middle;spacingLeft=4;spacingRight=4;overflow=hidden;points=[[0,0.5],[1,0.5]];portConstraint=eastwest;rotatable=0;whiteSpace=wrap;html=1;fontSize=23;" vertex="1" parent="auUgzY_PMX-vAND9uBgH-22">
          <mxGeometry y="40" width="270" height="40" as="geometry" />
        </mxCell>
        <mxCell id="auUgzY_PMX-vAND9uBgH-25" value="sales_order_id" style="text;strokeColor=none;fillColor=none;align=left;verticalAlign=middle;spacingLeft=4;spacingRight=4;overflow=hidden;points=[[0,0.5],[1,0.5]];portConstraint=eastwest;rotatable=0;whiteSpace=wrap;html=1;fontSize=23;" vertex="1" parent="auUgzY_PMX-vAND9uBgH-22">
          <mxGeometry y="80" width="270" height="40" as="geometry" />
        </mxCell>
        <mxCell id="sGkrU96Hlo-Jg_bifWnj-9" value="created_by" style="text;strokeColor=none;fillColor=none;align=left;verticalAlign=middle;spacingLeft=4;spacingRight=4;overflow=hidden;points=[[0,0.5],[1,0.5]];portConstraint=eastwest;rotatable=0;whiteSpace=wrap;html=1;fontSize=23;" vertex="1" parent="auUgzY_PMX-vAND9uBgH-22">
          <mxGeometry y="120" width="270" height="40" as="geometry" />
        </mxCell>
        <mxCell id="sGkrU96Hlo-Jg_bifWnj-8" value="changed_by" style="text;strokeColor=none;fillColor=none;align=left;verticalAlign=middle;spacingLeft=4;spacingRight=4;overflow=hidden;points=[[0,0.5],[1,0.5]];portConstraint=eastwest;rotatable=0;whiteSpace=wrap;html=1;fontSize=23;" vertex="1" parent="auUgzY_PMX-vAND9uBgH-22">
          <mxGeometry y="160" width="270" height="40" as="geometry" />
        </mxCell>
        <mxCell id="7fCkenw9OyGMZ3_PtRmy-5" value="&lt;font style=&quot;font-size: 24px;&quot;&gt;&lt;b&gt;SALES&lt;/b&gt;&lt;/font&gt;" style="rounded=0;whiteSpace=wrap;html=1;fillColor=#d5e8d4;strokeColor=#82b366;" vertex="1" parent="auUgzY_PMX-vAND9uBgH-22">
          <mxGeometry y="200" width="270" height="40" as="geometry" />
        </mxCell>
        <mxCell id="auUgzY_PMX-vAND9uBgH-26" value="erp_sales_order_items" style="swimlane;fontStyle=0;childLayout=stackLayout;horizontal=1;startSize=40;horizontalStack=0;resizeParent=1;resizeParentMax=0;resizeLast=0;collapsible=1;marginBottom=0;whiteSpace=wrap;html=1;rounded=1;fillColor=#fff2cc;strokeColor=#d6b656;fontSize=24;" vertex="1" parent="3UP7FawPSVQ9M-GqKKiO-1">
          <mxGeometry x="1080" y="-640" width="270" height="160" as="geometry" />
        </mxCell>
        <mxCell id="auUgzY_PMX-vAND9uBgH-27" value="sales_order_id" style="text;strokeColor=none;fillColor=none;align=left;verticalAlign=middle;spacingLeft=4;spacingRight=4;overflow=hidden;points=[[0,0.5],[1,0.5]];portConstraint=eastwest;rotatable=0;whiteSpace=wrap;html=1;fontSize=23;" vertex="1" parent="auUgzY_PMX-vAND9uBgH-26">
          <mxGeometry y="40" width="270" height="40" as="geometry" />
        </mxCell>
        <mxCell id="auUgzY_PMX-vAND9uBgH-28" value="product_id" style="text;strokeColor=none;fillColor=none;align=left;verticalAlign=middle;spacingLeft=4;spacingRight=4;overflow=hidden;points=[[0,0.5],[1,0.5]];portConstraint=eastwest;rotatable=0;whiteSpace=wrap;html=1;fontSize=23;" vertex="1" parent="auUgzY_PMX-vAND9uBgH-26">
          <mxGeometry y="80" width="270" height="40" as="geometry" />
        </mxCell>
        <mxCell id="7fCkenw9OyGMZ3_PtRmy-6" value="&lt;font style=&quot;font-size: 24px;&quot;&gt;&lt;b&gt;SALES&lt;/b&gt;&lt;/font&gt;" style="rounded=0;whiteSpace=wrap;html=1;fillColor=#d5e8d4;strokeColor=#82b366;" vertex="1" parent="auUgzY_PMX-vAND9uBgH-26">
          <mxGeometry y="120" width="270" height="40" as="geometry" />
        </mxCell>
        <mxCell id="auUgzY_PMX-vAND9uBgH-30" value="erp_employees" style="swimlane;fontStyle=0;childLayout=stackLayout;horizontal=1;startSize=40;horizontalStack=0;resizeParent=1;resizeParentMax=0;resizeLast=0;collapsible=1;marginBottom=0;whiteSpace=wrap;html=1;rounded=1;fillColor=#fff2cc;strokeColor=#d6b656;fontSize=24;" vertex="1" parent="3UP7FawPSVQ9M-GqKKiO-1">
          <mxGeometry x="1080" y="-433" width="270" height="120" as="geometry" />
        </mxCell>
        <mxCell id="auUgzY_PMX-vAND9uBgH-31" value="employee_id" style="text;strokeColor=none;fillColor=none;align=left;verticalAlign=middle;spacingLeft=4;spacingRight=4;overflow=hidden;points=[[0,0.5],[1,0.5]];portConstraint=eastwest;rotatable=0;whiteSpace=wrap;html=1;fontSize=23;" vertex="1" parent="auUgzY_PMX-vAND9uBgH-30">
          <mxGeometry y="40" width="270" height="40" as="geometry" />
        </mxCell>
        <mxCell id="7fCkenw9OyGMZ3_PtRmy-7" value="&lt;font style=&quot;font-size: 24px;&quot;&gt;&lt;b&gt;EMPLOYEE&lt;/b&gt;&lt;/font&gt;" style="rounded=0;whiteSpace=wrap;html=1;fillColor=#e1d5e7;strokeColor=#9673a6;" vertex="1" parent="auUgzY_PMX-vAND9uBgH-30">
          <mxGeometry y="80" width="270" height="40" as="geometry" />
        </mxCell>
        <mxCell id="auUgzY_PMX-vAND9uBgH-34" value="erp_addresses" style="swimlane;fontStyle=0;childLayout=stackLayout;horizontal=1;startSize=40;horizontalStack=0;resizeParent=1;resizeParentMax=0;resizeLast=0;collapsible=1;marginBottom=0;whiteSpace=wrap;html=1;rounded=1;fillColor=#fff2cc;strokeColor=#d6b656;fontSize=24;swimlaneFillColor=none;" vertex="1" parent="3UP7FawPSVQ9M-GqKKiO-1">
          <mxGeometry x="1460" y="-810" width="270" height="120" as="geometry" />
        </mxCell>
        <mxCell id="auUgzY_PMX-vAND9uBgH-35" value="address_id" style="text;align=left;verticalAlign=middle;spacingLeft=4;spacingRight=4;overflow=hidden;points=[[0,0.5],[1,0.5]];portConstraint=eastwest;rotatable=0;whiteSpace=wrap;html=1;fontSize=23;swimlaneFillColor=default;fillColor=none;fontFamily=Helvetica;fontColor=default;" vertex="1" parent="auUgzY_PMX-vAND9uBgH-34">
          <mxGeometry y="40" width="270" height="40" as="geometry" />
        </mxCell>
        <mxCell id="7fCkenw9OyGMZ3_PtRmy-9" value="&lt;font style=&quot;font-size: 24px;&quot;&gt;&lt;b&gt;BUSINESS PARTNER&lt;/b&gt;&lt;/font&gt;" style="rounded=0;whiteSpace=wrap;html=1;fillColor=#dae8fc;strokeColor=#6c8ebf;" vertex="1" parent="auUgzY_PMX-vAND9uBgH-34">
          <mxGeometry y="80" width="270" height="40" as="geometry" />
        </mxCell>
        <mxCell id="auUgzY_PMX-vAND9uBgH-37" value="erp_product_category_text" style="swimlane;fontStyle=0;childLayout=stackLayout;horizontal=1;startSize=40;horizontalStack=0;resizeParent=1;resizeParentMax=0;resizeLast=0;collapsible=1;marginBottom=0;whiteSpace=wrap;html=1;rounded=1;fillColor=#fff2cc;strokeColor=#d6b656;fontSize=24;" vertex="1" parent="3UP7FawPSVQ9M-GqKKiO-1">
          <mxGeometry x="2250" y="-710" width="300" height="120" as="geometry" />
        </mxCell>
        <mxCell id="auUgzY_PMX-vAND9uBgH-38" value="prod_category_id" style="text;strokeColor=none;fillColor=none;align=left;verticalAlign=middle;spacingLeft=4;spacingRight=4;overflow=hidden;points=[[0,0.5],[1,0.5]];portConstraint=eastwest;rotatable=0;whiteSpace=wrap;html=1;fontSize=23;" vertex="1" parent="auUgzY_PMX-vAND9uBgH-37">
          <mxGeometry y="40" width="300" height="40" as="geometry" />
        </mxCell>
        <mxCell id="7fCkenw9OyGMZ3_PtRmy-4" value="&lt;font style=&quot;font-size: 24px;&quot;&gt;&lt;b&gt;PRODUCT&lt;/b&gt;&lt;/font&gt;" style="rounded=0;whiteSpace=wrap;html=1;fillColor=#f8cecc;strokeColor=#b85450;" vertex="1" parent="auUgzY_PMX-vAND9uBgH-37">
          <mxGeometry y="80" width="300" height="40" as="geometry" />
        </mxCell>
        <mxCell id="auUgzY_PMX-vAND9uBgH-40" value="&lt;font style=&quot;font-size: 18px;&quot;&gt;Business partners information&lt;/font&gt;" style="text;html=1;strokeColor=none;fillColor=none;align=center;verticalAlign=middle;whiteSpace=wrap;rounded=0;fontSize=18;" vertex="1" parent="3UP7FawPSVQ9M-GqKKiO-1">
          <mxGeometry x="1082.5" y="-850" width="265" height="30" as="geometry" />
        </mxCell>
        <mxCell id="auUgzY_PMX-vAND9uBgH-41" value="&lt;font style=&quot;font-size: 18px;&quot;&gt;Product information&lt;/font&gt;" style="text;html=1;strokeColor=none;fillColor=none;align=center;verticalAlign=middle;whiteSpace=wrap;rounded=0;fontSize=18;" vertex="1" parent="3UP7FawPSVQ9M-GqKKiO-1">
          <mxGeometry x="1505" y="-670" width="265" height="30" as="geometry" />
        </mxCell>
        <mxCell id="auUgzY_PMX-vAND9uBgH-42" value="&lt;font style=&quot;font-size: 18px;&quot;&gt;Product classification &amp;amp; history&lt;/font&gt;" style="text;html=1;strokeColor=none;fillColor=none;align=center;verticalAlign=middle;whiteSpace=wrap;rounded=0;fontSize=18;" vertex="1" parent="3UP7FawPSVQ9M-GqKKiO-1">
          <mxGeometry x="1925" y="-750" width="260" height="30" as="geometry" />
        </mxCell>
        <mxCell id="auUgzY_PMX-vAND9uBgH-44" value="&lt;font style=&quot;font-size: 18px;&quot;&gt;Descriptions of product categories&lt;/font&gt;" style="text;html=1;strokeColor=none;fillColor=none;align=center;verticalAlign=middle;whiteSpace=wrap;rounded=0;fontSize=18;" vertex="1" parent="3UP7FawPSVQ9M-GqKKiO-1">
          <mxGeometry x="2270" y="-750" width="260" height="30" as="geometry" />
        </mxCell>
        <mxCell id="auUgzY_PMX-vAND9uBgH-45" value="&lt;font style=&quot;font-size: 18px;&quot;&gt;Sales order summary.&lt;/font&gt;" style="text;html=1;strokeColor=none;fillColor=none;align=center;verticalAlign=middle;whiteSpace=wrap;rounded=0;fontSize=18;" vertex="1" parent="3UP7FawPSVQ9M-GqKKiO-1">
          <mxGeometry x="460" y="-809" width="260" height="30" as="geometry" />
        </mxCell>
        <mxCell id="sGkrU96Hlo-Jg_bifWnj-1" style="edgeStyle=orthogonalEdgeStyle;rounded=0;orthogonalLoop=1;jettySize=auto;html=1;entryX=1;entryY=0.5;entryDx=0;entryDy=0;endArrow=none;endFill=0;exitX=0;exitY=0.5;exitDx=0;exitDy=0;" edge="1" parent="3UP7FawPSVQ9M-GqKKiO-1" source="auUgzY_PMX-vAND9uBgH-5" target="auUgzY_PMX-vAND9uBgH-23">
          <mxGeometry relative="1" as="geometry">
            <mxPoint x="1230" y="-880" as="sourcePoint" />
            <mxPoint x="855" y="-330" as="targetPoint" />
            <Array as="points">
              <mxPoint x="890" y="-750" />
              <mxPoint x="890" y="-710" />
            </Array>
          </mxGeometry>
        </mxCell>
        <mxCell id="sGkrU96Hlo-Jg_bifWnj-2" style="edgeStyle=orthogonalEdgeStyle;rounded=0;orthogonalLoop=1;jettySize=auto;html=1;endArrow=none;endFill=0;exitX=0;exitY=0.5;exitDx=0;exitDy=0;entryX=1;entryY=0.5;entryDx=0;entryDy=0;" edge="1" parent="3UP7FawPSVQ9M-GqKKiO-1" source="auUgzY_PMX-vAND9uBgH-27" target="auUgzY_PMX-vAND9uBgH-25">
          <mxGeometry relative="1" as="geometry">
            <mxPoint x="1330" y="-605" as="sourcePoint" />
            <mxPoint x="750" y="-565" as="targetPoint" />
            <Array as="points">
              <mxPoint x="1020" y="-580" />
              <mxPoint x="1020" y="-670" />
            </Array>
          </mxGeometry>
        </mxCell>
        <mxCell id="sGkrU96Hlo-Jg_bifWnj-3" style="edgeStyle=orthogonalEdgeStyle;rounded=0;orthogonalLoop=1;jettySize=auto;html=1;entryX=1;entryY=0.5;entryDx=0;entryDy=0;endArrow=none;endFill=0;exitX=0;exitY=0.5;exitDx=0;exitDy=0;" edge="1" parent="3UP7FawPSVQ9M-GqKKiO-1" source="auUgzY_PMX-vAND9uBgH-12" target="auUgzY_PMX-vAND9uBgH-5">
          <mxGeometry relative="1" as="geometry">
            <mxPoint x="1590" y="-430" as="sourcePoint" />
            <mxPoint x="1010" y="-390" as="targetPoint" />
            <Array as="points">
              <mxPoint x="1460" y="-570" />
              <mxPoint x="1460" y="-750" />
            </Array>
          </mxGeometry>
        </mxCell>
        <mxCell id="sGkrU96Hlo-Jg_bifWnj-4" style="edgeStyle=orthogonalEdgeStyle;rounded=0;orthogonalLoop=1;jettySize=auto;html=1;entryX=1;entryY=0.5;entryDx=0;entryDy=0;endArrow=none;endFill=0;exitX=0;exitY=0.5;exitDx=0;exitDy=0;" edge="1" parent="3UP7FawPSVQ9M-GqKKiO-1" source="auUgzY_PMX-vAND9uBgH-10" target="auUgzY_PMX-vAND9uBgH-28">
          <mxGeometry relative="1" as="geometry">
            <mxPoint x="1710" y="-570" as="sourcePoint" />
            <mxPoint x="1585" y="-740" as="targetPoint" />
          </mxGeometry>
        </mxCell>
        <mxCell id="sGkrU96Hlo-Jg_bifWnj-5" style="edgeStyle=orthogonalEdgeStyle;rounded=0;orthogonalLoop=1;jettySize=auto;html=1;entryX=1;entryY=0.5;entryDx=0;entryDy=0;endArrow=none;endFill=0;exitX=0;exitY=0.5;exitDx=0;exitDy=0;" edge="1" parent="3UP7FawPSVQ9M-GqKKiO-1" source="auUgzY_PMX-vAND9uBgH-15" target="auUgzY_PMX-vAND9uBgH-9">
          <mxGeometry relative="1" as="geometry">
            <mxPoint x="1580" y="-560" as="sourcePoint" />
            <mxPoint x="1455" y="-730" as="targetPoint" />
            <Array as="points">
              <mxPoint x="1840" y="-650" />
              <mxPoint x="1840" y="-530" />
            </Array>
          </mxGeometry>
        </mxCell>
        <mxCell id="sGkrU96Hlo-Jg_bifWnj-6" style="edgeStyle=orthogonalEdgeStyle;rounded=0;orthogonalLoop=1;jettySize=auto;html=1;entryX=1;entryY=0.5;entryDx=0;entryDy=0;endArrow=none;endFill=0;exitX=0;exitY=0.5;exitDx=0;exitDy=0;" edge="1" parent="3UP7FawPSVQ9M-GqKKiO-1" source="auUgzY_PMX-vAND9uBgH-20" target="auUgzY_PMX-vAND9uBgH-9">
          <mxGeometry relative="1" as="geometry">
            <mxPoint x="1930" y="-640" as="sourcePoint" />
            <mxPoint x="1850" y="-640" as="targetPoint" />
            <Array as="points">
              <mxPoint x="1890" y="-480" />
              <mxPoint x="1890" y="-530" />
            </Array>
          </mxGeometry>
        </mxCell>
        <mxCell id="sGkrU96Hlo-Jg_bifWnj-7" style="edgeStyle=orthogonalEdgeStyle;rounded=0;orthogonalLoop=1;jettySize=auto;html=1;entryX=1;entryY=0.5;entryDx=0;entryDy=0;endArrow=none;endFill=0;exitX=0;exitY=0.5;exitDx=0;exitDy=0;" edge="1" parent="3UP7FawPSVQ9M-GqKKiO-1" source="auUgzY_PMX-vAND9uBgH-31" target="sGkrU96Hlo-Jg_bifWnj-9">
          <mxGeometry relative="1" as="geometry">
            <mxPoint x="1320" y="-530" as="sourcePoint" />
            <mxPoint x="740" y="-490" as="targetPoint" />
            <Array as="points">
              <mxPoint x="890" y="-373" />
              <mxPoint x="890" y="-630" />
            </Array>
          </mxGeometry>
        </mxCell>
        <mxCell id="sGkrU96Hlo-Jg_bifWnj-10" style="edgeStyle=orthogonalEdgeStyle;rounded=0;orthogonalLoop=1;jettySize=auto;html=1;entryX=1;entryY=0.5;entryDx=0;entryDy=0;endArrow=none;endFill=0;exitX=0;exitY=0.5;exitDx=0;exitDy=0;" edge="1" parent="3UP7FawPSVQ9M-GqKKiO-1" source="auUgzY_PMX-vAND9uBgH-31" target="sGkrU96Hlo-Jg_bifWnj-8">
          <mxGeometry relative="1" as="geometry">
            <mxPoint x="1250" y="-530" as="sourcePoint" />
            <mxPoint x="735" y="-620" as="targetPoint" />
            <Array as="points">
              <mxPoint x="890" y="-373" />
              <mxPoint x="890" y="-590" />
            </Array>
          </mxGeometry>
        </mxCell>
        <mxCell id="sGkrU96Hlo-Jg_bifWnj-13" style="edgeStyle=orthogonalEdgeStyle;rounded=0;orthogonalLoop=1;jettySize=auto;html=1;entryX=0;entryY=0.5;entryDx=0;entryDy=0;endArrow=none;endFill=0;exitX=1;exitY=0.5;exitDx=0;exitDy=0;" edge="1" parent="3UP7FawPSVQ9M-GqKKiO-1" source="auUgzY_PMX-vAND9uBgH-31" target="sGkrU96Hlo-Jg_bifWnj-12">
          <mxGeometry relative="1" as="geometry">
            <mxPoint x="1315" y="-410" as="sourcePoint" />
            <mxPoint x="735" y="-580" as="targetPoint" />
            <Array as="points">
              <mxPoint x="1430" y="-373" />
              <mxPoint x="1430" y="-450" />
            </Array>
          </mxGeometry>
        </mxCell>
        <mxCell id="sGkrU96Hlo-Jg_bifWnj-14" style="edgeStyle=orthogonalEdgeStyle;rounded=0;orthogonalLoop=1;jettySize=auto;html=1;endArrow=none;endFill=0;exitX=1;exitY=0.5;exitDx=0;exitDy=0;entryX=-0.003;entryY=0.246;entryDx=0;entryDy=0;entryPerimeter=0;" edge="1" parent="3UP7FawPSVQ9M-GqKKiO-1" source="auUgzY_PMX-vAND9uBgH-31" target="sGkrU96Hlo-Jg_bifWnj-11">
          <mxGeometry relative="1" as="geometry">
            <mxPoint x="1530" y="-310" as="sourcePoint" />
            <mxPoint x="1900" y="-300" as="targetPoint" />
            <Array as="points">
              <mxPoint x="1430" y="-373" />
              <mxPoint x="1430" y="-420" />
            </Array>
          </mxGeometry>
        </mxCell>
        <mxCell id="sGkrU96Hlo-Jg_bifWnj-16" style="edgeStyle=orthogonalEdgeStyle;rounded=0;orthogonalLoop=1;jettySize=auto;html=1;entryX=1;entryY=0.5;entryDx=0;entryDy=0;endArrow=none;endFill=0;exitX=0;exitY=0.5;exitDx=0;exitDy=0;" edge="1" parent="3UP7FawPSVQ9M-GqKKiO-1" source="auUgzY_PMX-vAND9uBgH-38" target="auUgzY_PMX-vAND9uBgH-15">
          <mxGeometry relative="1" as="geometry">
            <mxPoint x="1930" y="-640" as="sourcePoint" />
            <mxPoint x="1850" y="-640" as="targetPoint" />
            <Array as="points">
              <mxPoint x="2230" y="-650" />
              <mxPoint x="2230" y="-650" />
            </Array>
          </mxGeometry>
        </mxCell>
        <mxCell id="sGkrU96Hlo-Jg_bifWnj-19" style="edgeStyle=orthogonalEdgeStyle;rounded=0;orthogonalLoop=1;jettySize=auto;html=1;entryX=1;entryY=0.5;entryDx=0;entryDy=0;endArrow=none;endFill=0;exitX=0;exitY=0.5;exitDx=0;exitDy=0;" edge="1" parent="3UP7FawPSVQ9M-GqKKiO-1" source="auUgzY_PMX-vAND9uBgH-35" target="auUgzY_PMX-vAND9uBgH-5">
          <mxGeometry relative="1" as="geometry">
            <mxPoint x="1890" y="-750" as="sourcePoint" />
            <mxPoint x="1420" y="-850" as="targetPoint" />
            <Array as="points" />
          </mxGeometry>
        </mxCell>
        <mxCell id="sGkrU96Hlo-Jg_bifWnj-20" value="&lt;font style=&quot;font-size: 18px;&quot;&gt;Products descriptions&lt;/font&gt;" style="text;html=1;strokeColor=none;fillColor=none;align=center;verticalAlign=middle;whiteSpace=wrap;rounded=0;fontSize=18;" vertex="1" parent="3UP7FawPSVQ9M-GqKKiO-1">
          <mxGeometry x="1950" y="-580" width="260" height="30" as="geometry" />
        </mxCell>
        <mxCell id="sGkrU96Hlo-Jg_bifWnj-21" value="&lt;font style=&quot;font-size: 18px;&quot;&gt;item details for each sales order.&lt;/font&gt;" style="text;html=1;strokeColor=none;fillColor=none;align=center;verticalAlign=middle;whiteSpace=wrap;rounded=0;fontSize=18;" vertex="1" parent="3UP7FawPSVQ9M-GqKKiO-1">
          <mxGeometry x="1080" y="-680" width="265" height="30" as="geometry" />
        </mxCell>
        <mxCell id="sGkrU96Hlo-Jg_bifWnj-22" value="&lt;font style=&quot;font-size: 18px;&quot;&gt;Employees information&lt;/font&gt;" style="text;html=1;strokeColor=none;fillColor=none;align=center;verticalAlign=middle;whiteSpace=wrap;rounded=0;fontSize=18;" vertex="1" parent="3UP7FawPSVQ9M-GqKKiO-1">
          <mxGeometry x="1082.5" y="-468" width="265" height="30" as="geometry" />
        </mxCell>
        <mxCell id="sGkrU96Hlo-Jg_bifWnj-23" value="&lt;font style=&quot;font-size: 18px;&quot;&gt;Business partner addresses&lt;/font&gt;" style="text;html=1;strokeColor=none;fillColor=none;align=center;verticalAlign=middle;whiteSpace=wrap;rounded=0;fontSize=18;" vertex="1" parent="3UP7FawPSVQ9M-GqKKiO-1">
          <mxGeometry x="1462.5" y="-850" width="265" height="30" as="geometry" />
        </mxCell>
      </root>
    </mxGraphModel>
  </diagram>
</mxfile>
